<?xml version="1.0" standalone="no"?>
<!DOCTYPE svg PUBLIC "-//W3C//DTD SVG 20010904//EN"
 "http://www.w3.org/TR/2001/REC-SVG-20010904/DTD/svg10.dtd">
<svg version="1.0" xmlns="http://www.w3.org/2000/svg"
 width="152.000000pt" height="152.000000pt" viewBox="0 0 152.000000 152.000000"
 preserveAspectRatio="xMidYMid meet">
<metadata>
Created by potrace 1.14, written by Peter Selinger 2001-2017
</metadata>
<g transform="translate(0.000000,152.000000) scale(0.100000,-0.100000)"
fill="#000000" stroke="none">
<path d="M870 1403 c-14 -9 -50 -41 -79 -70 -30 -29 -59 -53 -63 -53 -4 0 -8
-6 -8 -14 0 -8 -8 -21 -18 -28 -10 -7 -38 -42 -62 -77 -25 -34 -53 -72 -62
-82 -10 -10 -16 -19 -13 -19 3 0 -10 -20 -29 -45 -42 -54 -146 -265 -146 -295
0 -11 -7 -35 -16 -52 -11 -22 -17 -63 -19 -137 -4 -180 36 -293 139 -397 63
-63 140 -99 233 -111 197 -25 369 47 467 197 64 97 79 151 74 273 -5 120 -24
170 -112 297 -31 44 -56 85 -56 90 0 6 -4 10 -8 10 -10 0 -62 77 -62 91 0 5
-4 9 -8 9 -10 0 -58 95 -83 165 -14 39 -17 73 -14 158 3 95 2 107 -14 107 -9
0 -28 -8 -41 -17z"/>
</g>
</svg>
